# xmcd CD database file
#
# Track frame offsets:
#	150
#	36371
#	67491
#	91868
#	113527
#
# Disc length: 1870 seconds
#
# Revision: 0
# Processed by: cddbd v1.5.1PL0 Copyright (c) Steve Scherf et al.
# Submitted via: CDex 1.51
#
DISCID=3f074c05
DTITLE=DiGiLoG - ROOT OUT
DYEAR=1900
DGENRE=エレクトロニック (一般)
TTITLE0=Happy System
TTITLE1=Cry -E3 Edit-
TTITLE2=Step Tricky
TTITLE3=Take It easY
TTITLE4=Forest Of Arfe
EXTD=
EXTT0=
EXTT1=
EXTT2=
EXTT3=
EXTT4=
PLAYORDER=
